<svg width="536" height="217" viewBox="0 0 536 217" fill="none" xmlns="http://www.w3.org/2000/svg">
<g filter="url(#filter0_d_230_75)">
<path d="M4.856 117.768H23.096V189H4.856V117.768ZM57.1258 136.104C65.7658 136.104 72.3578 138.088 76.9018 142.056C81.4458 145.96 83.7178 151.976 83.7178 160.104V189H66.7258V182.28C64.1018 187.336 58.9818 189.864 51.3658 189.864C47.3338 189.864 43.8458 189.16 40.9018 187.752C37.9578 186.344 35.7178 184.456 34.1818 182.088C32.7098 179.656 31.9738 176.904 31.9738 173.832C31.9738 168.904 33.8618 165.096 37.6378 162.408C41.4138 159.656 47.2378 158.28 55.1098 158.28H65.4778C65.1578 152.776 61.4778 150.024 54.4377 150.024C51.9418 150.024 49.4138 150.44 46.8538 151.272C44.2938 152.04 42.1178 153.128 40.3258 154.536L34.1818 142.152C37.0618 140.232 40.5498 138.76 44.6458 137.736C48.8058 136.648 52.9658 136.104 57.1258 136.104ZM56.4538 178.344C58.5658 178.344 60.4218 177.832 62.0218 176.808C63.6218 175.784 64.7738 174.28 65.4778 172.296V167.784H57.6058C52.2938 167.784 49.6378 169.544 49.6378 173.064C49.6378 174.664 50.2458 175.944 51.4618 176.904C52.6778 177.864 54.3418 178.344 56.4538 178.344ZM129.119 136.104C135.583 136.104 140.767 138.024 144.671 141.864C148.639 145.704 150.623 151.496 150.623 159.24V189H132.383V162.216C132.383 155.112 129.535 151.56 123.839 151.56C120.703 151.56 118.175 152.584 116.255 154.632C114.399 156.68 113.471 159.752 113.471 163.848V189H95.231V136.968H112.607V142.632C114.655 140.52 117.087 138.92 119.903 137.832C122.719 136.68 125.791 136.104 129.119 136.104ZM218.793 136.968V179.496C218.793 189.16 216.169 196.392 210.921 201.192C205.673 206.056 198.121 208.488 188.265 208.488C183.145 208.488 178.345 207.912 173.865 206.76C169.385 205.608 165.577 203.912 162.441 201.672L169.065 188.904C171.177 190.632 173.833 191.976 177.033 192.936C180.297 193.96 183.497 194.472 186.633 194.472C191.433 194.472 194.953 193.416 197.193 191.304C199.433 189.192 200.553 186.056 200.553 181.896V180.168C197.033 184.264 191.881 186.312 185.097 186.312C180.489 186.312 176.233 185.288 172.329 183.24C168.425 181.128 165.321 178.184 163.017 174.408C160.713 170.568 159.561 166.152 159.561 161.16C159.561 156.232 160.713 151.88 163.017 148.104C165.321 144.264 168.425 141.32 172.329 139.272C176.233 137.16 180.489 136.104 185.097 136.104C192.521 136.104 197.961 138.504 201.417 143.304V136.968H218.793ZM189.417 171.816C192.681 171.816 195.369 170.824 197.481 168.84C199.657 166.856 200.745 164.296 200.745 161.16C200.745 158.024 199.689 155.496 197.577 153.576C195.465 151.592 192.745 150.6 189.417 150.6C186.089 150.6 183.337 151.592 181.161 153.576C179.049 155.496 177.993 158.024 177.993 161.16C177.993 164.296 179.081 166.856 181.257 168.84C183.433 170.824 186.153 171.816 189.417 171.816ZM285.232 136.968V189H267.856V183.432C265.936 185.544 263.632 187.144 260.944 188.232C258.256 189.32 255.408 189.864 252.4 189.864C245.68 189.864 240.304 187.88 236.272 183.912C232.304 179.944 230.32 173.992 230.32 166.056V136.968H248.56V163.08C248.56 166.984 249.296 169.832 250.768 171.624C252.24 173.416 254.384 174.312 257.2 174.312C260.08 174.312 262.416 173.32 264.208 171.336C266.064 169.288 266.992 166.184 266.992 162.024V136.968H285.232ZM319.157 136.104C327.797 136.104 334.389 138.088 338.933 142.056C343.477 145.96 345.749 151.976 345.749 160.104V189H328.757V182.28C326.133 187.336 321.013 189.864 313.397 189.864C309.365 189.864 305.877 189.16 302.933 187.752C299.989 186.344 297.749 184.456 296.213 182.088C294.741 179.656 294.005 176.904 294.005 173.832C294.005 168.904 295.893 165.096 299.669 162.408C303.445 159.656 309.269 158.28 317.141 158.28H327.509C327.189 152.776 323.509 150.024 316.469 150.024C313.973 150.024 311.445 150.44 308.885 151.272C306.325 152.04 304.149 153.128 302.357 154.536L296.213 142.152C299.093 140.232 302.581 138.76 306.677 137.736C310.837 136.648 314.997 136.104 319.157 136.104ZM318.485 178.344C320.597 178.344 322.453 177.832 324.053 176.808C325.653 175.784 326.805 174.28 327.509 172.296V167.784H319.637C314.325 167.784 311.669 169.544 311.669 173.064C311.669 174.664 312.277 175.944 313.493 176.904C314.709 177.864 316.373 178.344 318.485 178.344ZM413.98 136.968V179.496C413.98 189.16 411.356 196.392 406.108 201.192C400.86 206.056 393.308 208.488 383.452 208.488C378.332 208.488 373.532 207.912 369.052 206.76C364.572 205.608 360.764 203.912 357.628 201.672L364.252 188.904C366.364 190.632 369.02 191.976 372.22 192.936C375.484 193.96 378.684 194.472 381.82 194.472C386.62 194.472 390.14 193.416 392.38 191.304C394.62 189.192 395.74 186.056 395.74 181.896V180.168C392.22 184.264 387.068 186.312 380.284 186.312C375.676 186.312 371.42 185.288 367.516 183.24C363.612 181.128 360.508 178.184 358.204 174.408C355.9 170.568 354.748 166.152 354.748 161.16C354.748 156.232 355.9 151.88 358.204 148.104C360.508 144.264 363.612 141.32 367.516 139.272C371.42 137.16 375.676 136.104 380.284 136.104C387.708 136.104 393.148 138.504 396.604 143.304V136.968H413.98ZM384.604 171.816C387.868 171.816 390.556 170.824 392.668 168.84C394.844 166.856 395.932 164.296 395.932 161.16C395.932 158.024 394.876 155.496 392.764 153.576C390.652 151.592 387.932 150.6 384.604 150.6C381.276 150.6 378.524 151.592 376.348 153.576C374.236 155.496 373.18 158.024 373.18 161.16C373.18 164.296 374.268 166.856 376.444 168.84C378.62 170.824 381.34 171.816 384.604 171.816ZM478.884 163.08C478.884 163.208 478.788 164.712 478.596 167.592H440.772C441.54 170.28 443.012 172.36 445.188 173.832C447.428 175.24 450.212 175.944 453.54 175.944C456.036 175.944 458.18 175.592 459.972 174.888C461.828 174.184 463.684 173.032 465.54 171.432L475.14 181.416C470.084 187.048 462.692 189.864 452.964 189.864C446.884 189.864 441.54 188.712 436.932 186.408C432.324 184.104 428.74 180.904 426.18 176.808C423.684 172.712 422.436 168.072 422.436 162.888C422.436 157.768 423.652 153.192 426.084 149.16C428.58 145.064 432.004 141.864 436.356 139.56C440.708 137.256 445.604 136.104 451.044 136.104C456.228 136.104 460.932 137.192 465.156 139.368C469.38 141.48 472.708 144.584 475.14 148.68C477.636 152.712 478.884 157.512 478.884 163.08ZM451.14 149.064C448.324 149.064 445.956 149.864 444.036 151.464C442.18 153.064 440.996 155.24 440.484 157.992H461.796C461.284 155.24 460.068 153.064 458.148 151.464C456.292 149.864 453.956 149.064 451.14 149.064ZM506.206 189.864C501.854 189.864 497.566 189.384 493.342 188.424C489.118 187.4 485.726 186.088 483.166 184.488L488.638 172.008C491.006 173.48 493.822 174.664 497.086 175.56C500.35 176.392 503.582 176.808 506.781 176.808C509.726 176.808 511.806 176.52 513.022 175.944C514.302 175.304 514.942 174.408 514.942 173.256C514.942 172.104 514.174 171.304 512.638 170.856C511.166 170.344 508.798 169.864 505.534 169.416C501.374 168.904 497.822 168.232 494.878 167.4C491.998 166.568 489.502 165.032 487.39 162.792C485.278 160.552 484.222 157.416 484.222 153.384C484.222 150.056 485.214 147.112 487.198 144.552C489.182 141.928 492.062 139.88 495.838 138.408C499.678 136.872 504.254 136.104 509.566 136.104C513.342 136.104 517.086 136.488 520.798 137.256C524.51 138.024 527.614 139.112 530.11 140.52L524.638 152.904C520.03 150.344 515.038 149.064 509.661 149.064C506.782 149.064 504.67 149.416 503.326 150.12C501.982 150.76 501.31 151.624 501.31 152.712C501.31 153.928 502.046 154.792 503.518 155.304C504.99 155.752 507.422 156.232 510.814 156.744C515.102 157.384 518.654 158.12 521.47 158.952C524.286 159.784 526.718 161.32 528.766 163.56C530.878 165.736 531.934 168.808 531.934 172.776C531.934 176.04 530.942 178.984 528.958 181.608C526.974 184.168 524.03 186.184 520.126 187.656C516.286 189.128 511.646 189.864 506.206 189.864Z" fill="#2D2D2D"/>
<path d="M4.856 0.767996V-0.232004H3.856V0.767996H4.856ZM23.096 0.767996H24.096V-0.232004H23.096V0.767996ZM23.096 72V73H24.096V72H23.096ZM4.856 72H3.856V73H4.856V72ZM4.856 1.768H23.096V-0.232004H4.856V1.768ZM22.096 0.767996V72H24.096V0.767996H22.096ZM23.096 71H4.856V73H23.096V71ZM5.856 72V0.767996H3.856V72H5.856ZM87.8458 50.592V51.592H88.7813L88.8435 50.6585L87.8458 50.592ZM50.0218 50.592V49.592H48.696L49.0602 50.8667L50.0218 50.592ZM54.4378 56.832L53.8774 57.6603L53.8914 57.6697L53.9056 57.6786L54.4378 56.832ZM69.2217 57.888L68.8671 56.9529L68.8561 56.9572L69.2217 57.888ZM74.7897 54.432L75.5106 53.7389L74.8541 53.0562L74.1368 53.6746L74.7897 54.432ZM84.3898 64.416L85.1339 65.084L85.7546 64.3926L85.1106 63.7229L84.3898 64.416ZM46.1818 69.408L46.629 68.5136L46.1818 69.408ZM35.4297 59.808L34.5758 60.3284L34.5818 60.338L35.4297 59.808ZM35.3338 32.16L34.4798 31.6396L34.4775 31.6435L35.3338 32.16ZM45.6058 22.56L45.1379 21.6762L45.6058 22.56ZM74.4058 22.368L73.9478 23.257L73.9585 23.2624L74.4058 22.368ZM84.3898 31.68L83.5299 32.1905L83.5346 32.1985L83.5395 32.2064L84.3898 31.68ZM53.2858 34.464L52.6456 33.6958L52.6391 33.7011L52.6328 33.7066L53.2858 34.464ZM49.7337 40.992L48.7506 40.8091L48.5305 41.992H49.7337V40.992ZM71.0458 40.992V41.992H72.249L72.0289 40.8091L71.0458 40.992ZM67.3978 34.464L66.7448 35.2214L66.7511 35.2269L66.7576 35.2322L67.3978 34.464ZM87.1338 46.08C87.1338 46.0743 87.1306 46.1519 87.1175 46.3753C87.1056 46.5768 87.0877 46.8648 87.0638 47.2403C87.0159 47.9909 86.944 49.0857 86.848 50.5255L88.8435 50.6585C89.0331 47.8155 89.1338 46.2522 89.1338 46.08H87.1338ZM87.8458 49.592H50.0218V51.592H87.8458V49.592ZM49.0602 50.8667C49.8883 53.765 51.4938 56.0478 53.8774 57.6603L54.9981 56.0037C53.0298 54.6722 51.6912 52.795 50.9833 50.3173L49.0602 50.8667ZM53.9056 57.6786C56.3414 59.2097 59.3217 59.944 62.7897 59.944V57.944C59.6018 57.944 57.0141 57.2703 54.9699 55.9854L53.9056 57.6786ZM62.7897 59.944C65.3756 59.944 67.6501 59.5799 69.5874 58.8187L68.8561 56.9572C67.2094 57.6041 65.1959 57.944 62.7897 57.944V59.944ZM69.5764 58.823C71.5636 58.0692 73.5183 56.8483 75.4427 55.1894L74.1368 53.6746C72.3492 55.2157 70.5919 56.2988 68.8671 56.953L69.5764 58.823ZM74.0689 55.1251L83.6689 65.1091L85.1106 63.7229L75.5106 53.7389L74.0689 55.1251ZM83.6456 63.748C78.8301 69.112 71.7441 71.864 62.2138 71.864V73.864C72.1394 73.864 79.8374 70.984 85.1339 65.084L83.6456 63.748ZM62.2138 71.864C56.2612 71.864 51.0752 70.7367 46.629 68.5136L45.7345 70.3024C50.5043 72.6873 56.0063 73.864 62.2138 73.864V71.864ZM46.629 68.5136C42.1741 66.2862 38.7337 63.2075 36.2777 59.278L34.5818 60.338C37.2458 64.6005 40.9734 67.9218 45.7345 70.3024L46.629 68.5136ZM36.2837 59.2876C33.8909 55.361 32.6857 50.9038 32.6857 45.888H30.6858C30.6858 51.2402 31.9766 56.063 34.5758 60.3284L36.2837 59.2876ZM32.6857 45.888C32.6857 40.9336 33.8602 36.5391 36.19 32.6765L34.4775 31.6435C31.9433 35.8449 30.6858 40.6024 30.6858 45.888H32.6857ZM36.1877 32.6804C38.5875 28.7423 41.8762 25.6659 46.0736 23.4438L45.1379 21.6762C40.6313 24.0621 37.072 27.3857 34.4798 31.6396L36.1877 32.6804ZM46.0736 23.4438C50.2669 21.2239 54.9995 20.104 60.2938 20.104V18.104C54.708 18.104 49.6486 19.2881 45.1379 21.6762L46.0736 23.4438ZM60.2938 20.104C65.3332 20.104 69.878 21.1604 73.9478 23.257L74.8637 21.479C70.4855 19.2236 65.6223 18.104 60.2938 18.104V20.104ZM73.9585 23.2624C78.0095 25.2879 81.1949 28.2579 83.5299 32.1905L85.2496 31.1695C82.7206 26.9101 79.2501 23.6721 74.853 21.4736L73.9585 23.2624ZM83.5395 32.2064C85.9216 36.0545 87.1338 40.6651 87.1338 46.08H89.1338C89.1338 40.3589 87.8499 35.3695 85.24 31.1536L83.5395 32.2064ZM60.3898 31.064C57.3713 31.064 54.7681 31.927 52.6456 33.6958L53.9259 35.2322C55.6434 33.801 57.7762 33.064 60.3898 33.064V31.064ZM52.6328 33.7066C50.5805 35.4758 49.298 37.8671 48.7506 40.8091L50.7169 41.1749C51.1935 38.6129 52.279 36.6522 53.9387 35.2214L52.6328 33.7066ZM49.7337 41.992H71.0458V39.992H49.7337V41.992ZM72.0289 40.8091C71.4797 37.8572 70.1585 35.463 68.0379 33.6958L66.7576 35.2322C68.477 36.665 69.5878 38.6228 70.0626 41.1749L72.0289 40.8091ZM68.0507 33.7066C65.9863 31.927 63.4075 31.064 60.3898 31.064V33.064C63.004 33.064 65.0972 33.801 66.7448 35.2214L68.0507 33.7066ZM137.089 25.056L136.431 25.8093L136.438 25.8145L137.089 25.056ZM143.905 72V73H144.905V72H143.905ZM126.913 72H125.913V73H126.913V72ZM126.913 65.28H127.913L126.026 64.8194L126.913 65.28ZM101.089 70.752L100.658 71.6541L101.089 70.752ZM94.3692 65.088L93.5137 65.6058L93.5218 65.6191L93.5303 65.6322L94.3692 65.088ZM97.8252 45.408L98.4052 46.2227L98.4142 46.2161L97.8252 45.408ZM125.665 41.28V42.28H126.725L126.664 41.222L125.665 41.28ZM107.041 34.272L107.329 35.2298L107.34 35.2266L107.35 35.223L107.041 34.272ZM100.513 37.536L99.6174 37.9804L100.164 39.0821L101.131 38.3223L100.513 37.536ZM94.3692 25.152L93.8146 24.3199L93.0823 24.8081L93.4734 25.5964L94.3692 25.152ZM104.833 20.736L105.076 21.7062L105.086 21.7035L104.833 20.736ZM122.209 59.808L122.748 60.6503L122.209 59.808ZM125.665 55.296L126.608 55.6304L126.665 55.4682V55.296H125.665ZM125.665 50.784H126.665V49.784H125.665V50.784ZM111.649 59.904L111.03 60.6889L111.649 59.904ZM117.313 20.104C125.815 20.104 132.135 22.0571 136.432 25.8092L137.747 24.3028C132.956 20.1189 126.092 18.104 117.313 18.104V20.104ZM136.438 25.8145C140.689 29.4672 142.905 35.1581 142.905 43.104H144.905C144.905 34.7939 142.577 28.4528 137.741 24.2975L136.438 25.8145ZM142.905 43.104V72H144.905V43.104H142.905ZM143.905 71H126.913V73H143.905V71ZM127.913 72V65.28H125.913V72H127.913ZM126.026 64.8194C123.632 69.4318 118.942 71.864 111.553 71.864V73.864C119.397 73.864 124.947 71.2402 127.801 65.7406L126.026 64.8194ZM111.553 71.864C107.636 71.864 104.302 71.1801 101.521 69.8499L100.658 71.6541C103.764 73.1399 107.406 73.864 111.553 73.864V71.864ZM101.521 69.8499C98.7165 68.5087 96.6291 66.7344 95.2082 64.5438L93.5303 65.6322C95.1814 68.1776 97.574 70.1793 100.658 71.6541L101.521 69.8499ZM95.2247 64.5702C93.8549 62.3069 93.1612 59.7367 93.1612 56.832H91.1612C91.1612 60.0713 91.9396 63.0051 93.5137 65.6058L95.2247 64.5702ZM93.1612 56.832C93.1612 52.2035 94.9118 48.7095 98.4052 46.2227L97.2453 44.5933C93.1868 47.4825 91.1612 51.6045 91.1612 56.832H93.1612ZM98.4142 46.2161C101.937 43.6485 107.506 42.28 115.297 42.28V40.28C107.344 40.28 101.265 41.6635 97.2363 44.5999L98.4142 46.2161ZM115.297 42.28H125.665V40.28H115.297V42.28ZM126.664 41.222C126.49 38.2403 125.388 35.8752 123.264 34.2872C121.181 32.7294 118.253 32.024 114.625 32.024V34.024C118.038 34.024 120.469 34.6946 122.066 35.8888C123.623 37.0528 124.52 38.8157 124.667 41.338L126.664 41.222ZM114.625 32.024C112.016 32.024 109.384 32.4591 106.732 33.321L107.35 35.223C109.818 34.4209 112.242 34.024 114.625 34.024V32.024ZM106.754 33.3142C104.094 34.112 101.801 35.2522 99.8954 36.7497L101.131 38.3223C102.809 37.0038 104.868 35.968 107.329 35.2298L106.754 33.3142ZM101.409 37.0916L95.2651 24.7076L93.4734 25.5964L99.6174 37.9804L101.409 37.0916ZM94.924 25.984C97.6902 24.1399 101.067 22.7082 105.076 21.7061L104.591 19.7659C100.407 20.8117 96.8083 22.3241 93.8146 24.3199L94.924 25.984ZM105.086 21.7035C109.166 20.6363 113.241 20.104 117.313 20.104V18.104C113.065 18.104 108.82 18.6597 104.58 19.7685L105.086 21.7035ZM116.641 62.344C118.922 62.344 120.97 61.7886 122.748 60.6503L121.67 58.9657C120.249 59.8754 118.584 60.344 116.641 60.344V62.344ZM122.748 60.6503C124.556 59.4935 125.838 57.7998 126.608 55.6304L124.723 54.9616C124.085 56.7602 123.063 58.0745 121.67 58.9657L122.748 60.6503ZM126.665 55.296V50.784H124.665V55.296H126.665ZM125.665 49.784H117.793V51.784H125.665V49.784ZM117.793 49.784C115.058 49.784 112.833 50.2313 111.265 51.2704C109.624 52.3574 108.825 54.0101 108.825 56.064H110.825C110.825 54.5979 111.354 53.6106 112.37 52.9376C113.458 52.2167 115.216 51.784 117.793 51.784V49.784ZM108.825 56.064C108.825 57.9584 109.564 59.5321 111.03 60.6889L112.269 59.1191C111.302 58.3559 110.825 57.3696 110.825 56.064H108.825ZM111.03 60.6889C112.477 61.8312 114.385 62.344 116.641 62.344V60.344C114.673 60.344 113.254 59.8968 112.269 59.1191L111.03 60.6889ZM172.794 26.208H171.794V29.1049L173.582 26.8249L172.794 26.208ZM179.995 20.928L180.359 21.8593L180.369 21.8551L179.995 20.928ZM190.267 19.104H191.267V18.104H190.267V19.104ZM190.267 35.52L190.152 36.5134L191.267 36.642V35.52H190.267ZM176.923 38.4L176.236 37.6724L176.231 37.6774L176.226 37.6824L176.923 38.4ZM173.659 72V73H174.659V72H173.659ZM155.419 72H154.419V73H155.419V72ZM155.419 19.968V18.968H154.419V19.968H155.419ZM172.794 19.968H173.794V18.968H172.794V19.968ZM173.582 26.8249C175.322 24.6048 177.573 22.9496 180.359 21.8592L179.63 19.9968C176.528 21.2104 173.979 23.0752 172.007 25.5911L173.582 26.8249ZM180.369 21.8551C183.238 20.6952 186.532 20.104 190.267 20.104V18.104C186.321 18.104 182.767 18.7288 179.62 20.0009L180.369 21.8551ZM189.267 19.104V35.52H191.267V19.104H189.267ZM190.381 34.5266C188.697 34.3323 187.279 34.232 186.139 34.232V36.232C187.174 36.232 188.508 36.3237 190.152 36.5134L190.381 34.5266ZM186.139 34.232C182.051 34.232 178.708 35.342 176.236 37.6724L177.609 39.1276C179.617 37.234 182.418 36.232 186.139 36.232V34.232ZM176.226 37.6824C173.785 40.052 172.659 43.5925 172.659 48.096H174.659C174.659 43.8955 175.708 40.972 177.619 39.1176L176.226 37.6824ZM172.659 48.096V72H174.659V48.096H172.659ZM173.659 71H155.419V73H173.659V71ZM156.419 72V19.968H154.419V72H156.419ZM155.419 20.968H172.794V18.968H155.419V20.968ZM171.794 19.968V26.208H173.794V19.968H171.794ZM247.234 24.864L246.532 25.5769L246.538 25.5826L247.234 24.864ZM253.186 72V73H254.186V72H253.186ZM234.945 72H233.945V73H234.945V72ZM218.818 37.632L218.088 36.9481L218.082 36.9542L218.077 36.9605L218.818 37.632ZM216.034 72V73H217.034V72H216.034ZM197.794 72H196.794V73H197.794V72ZM197.794 19.968V18.968H196.794V19.968H197.794ZM215.169 19.968H216.169V18.968H215.169V19.968ZM215.169 25.632H214.169V28.0997L215.887 26.3281L215.169 25.632ZM222.465 20.832L222.826 21.7648L222.835 21.7613L222.844 21.7575L222.465 20.832ZM231.682 20.104C237.934 20.104 242.849 21.9537 246.532 25.5769L247.935 24.1511C243.81 20.0943 238.357 18.104 231.682 18.104V20.104ZM246.538 25.5826C250.244 29.1689 252.186 34.6558 252.186 42.24H254.186C254.186 34.3362 252.159 28.2391 247.929 24.1454L246.538 25.5826ZM252.186 42.24V72H254.186V42.24H252.186ZM253.186 71H234.945V73H253.186V71ZM235.945 72V45.216H233.945V72H235.945ZM235.945 45.216C235.945 41.5568 235.216 38.6272 233.59 36.5984C231.929 34.5275 229.469 33.56 226.402 33.56V35.56C229.03 35.56 230.842 36.3685 232.029 37.8496C233.251 39.3728 233.945 41.7712 233.945 45.216H235.945ZM226.402 33.56C223.025 33.56 220.22 34.6737 218.088 36.9481L219.547 38.3159C221.255 36.4943 223.506 35.56 226.402 35.56V33.56ZM218.077 36.9605C215.989 39.2638 215.034 42.6209 215.034 46.848H217.034C217.034 42.8831 217.934 40.0962 219.558 38.3035L218.077 36.9605ZM215.034 46.848V72H217.034V46.848H215.034ZM216.034 71H197.794V73H216.034V71ZM198.794 72V19.968H196.794V72H198.794ZM197.794 20.968H215.169V18.968H197.794V20.968ZM214.169 19.968V25.632H216.169V19.968H214.169ZM215.887 26.3281C217.832 24.3227 220.141 22.8021 222.826 21.7648L222.105 19.8992C219.158 21.0379 216.603 22.7173 214.452 24.9359L215.887 26.3281ZM222.844 21.7575C225.529 20.6591 228.471 20.104 231.682 20.104V18.104C228.236 18.104 225.034 18.7009 222.087 19.9064L222.844 21.7575ZM4.856 117.768V116.768H3.856V117.768H4.856ZM23.096 117.768H24.096V116.768H23.096V117.768ZM23.096 189V190H24.096V189H23.096ZM4.856 189H3.856V190H4.856V189ZM4.856 118.768H23.096V116.768H4.856V118.768ZM22.096 117.768V189H24.096V117.768H22.096ZM23.096 188H4.856V190H23.096V188ZM5.856 189V117.768H3.856V189H5.856ZM76.9017 142.056L76.244 142.809L76.2501 142.814L76.9017 142.056ZM83.7178 189V190H84.7178V189H83.7178ZM66.7258 189H65.7258V190H66.7258V189ZM66.7258 182.28H67.7258L65.8382 181.819L66.7258 182.28ZM40.9017 187.752L40.4703 188.654L40.9017 187.752ZM34.1818 182.088L33.3263 182.606L33.3343 182.619L33.3428 182.632L34.1818 182.088ZM37.6377 162.408L38.2177 163.223L38.2267 163.216L37.6377 162.408ZM65.4778 158.28V159.28H66.5376L66.4761 158.222L65.4778 158.28ZM46.8538 151.272L47.1411 152.23L47.152 152.227L47.1628 152.223L46.8538 151.272ZM40.3258 154.536L39.4299 154.98L39.9765 156.082L40.9436 155.322L40.3258 154.536ZM34.1818 142.152L33.6271 141.32L32.8948 141.808L33.2859 142.596L34.1818 142.152ZM44.6458 137.736L44.8883 138.706L44.8988 138.703L44.6458 137.736ZM62.0218 176.808L62.5608 177.65L62.0218 176.808ZM65.4778 172.296L66.4202 172.63L66.4778 172.468V172.296H65.4778ZM65.4778 167.784H66.4778V166.784H65.4778V167.784ZM51.4618 176.904L50.8421 177.689L51.4618 176.904ZM57.1258 137.104C65.627 137.104 71.9472 139.057 76.244 142.809L77.5595 141.303C72.7683 137.119 65.9045 135.104 57.1258 135.104V137.104ZM76.2501 142.814C80.5016 146.467 82.7178 152.158 82.7178 160.104H84.7178C84.7178 151.794 82.3899 145.453 77.5534 141.298L76.2501 142.814ZM82.7178 160.104V189H84.7178V160.104H82.7178ZM83.7178 188H66.7258V190H83.7178V188ZM67.7258 189V182.28H65.7258V189H67.7258ZM65.8382 181.819C63.4444 186.432 58.7544 188.864 51.3657 188.864V190.864C59.2091 190.864 64.7591 188.24 67.6133 182.741L65.8382 181.819ZM51.3657 188.864C47.4487 188.864 44.1146 188.18 41.3332 186.85L40.4703 188.654C43.5769 190.14 47.2188 190.864 51.3657 190.864V188.864ZM41.3332 186.85C38.529 185.509 36.4416 183.734 35.0207 181.544L33.3428 182.632C34.9939 185.178 37.3865 187.179 40.4703 188.654L41.3332 186.85ZM35.0373 181.57C33.6674 179.307 32.9738 176.737 32.9738 173.832H30.9738C30.9738 177.071 31.7521 180.005 33.3263 182.606L35.0373 181.57ZM32.9738 173.832C32.9738 169.203 34.7242 165.71 38.2177 163.223L37.0578 161.593C32.9993 164.482 30.9738 168.605 30.9738 173.832H32.9738ZM38.2267 163.216C41.7498 160.648 47.3186 159.28 55.1098 159.28V157.28C47.157 157.28 41.0777 158.663 37.0488 161.6L38.2267 163.216ZM55.1098 159.28H65.4778V157.28H55.1098V159.28ZM66.4761 158.222C66.3027 155.24 65.2002 152.875 63.0766 151.287C60.9935 149.729 58.0654 149.024 54.4378 149.024V151.024C57.8501 151.024 60.282 151.695 61.8789 152.889C63.4353 154.053 64.3328 155.816 64.4794 158.338L66.4761 158.222ZM54.4378 149.024C51.8289 149.024 49.1967 149.459 46.5447 150.321L47.1628 152.223C49.6308 151.421 52.0546 151.024 54.4378 151.024V149.024ZM46.5664 150.314C43.9068 151.112 41.6138 152.252 39.7079 153.75L40.9436 155.322C42.6217 154.004 44.6807 152.968 47.1411 152.23L46.5664 150.314ZM41.2216 154.092L35.0776 141.708L33.2859 142.596L39.4299 154.98L41.2216 154.092ZM34.7365 142.984C37.5027 141.14 40.8799 139.708 44.8883 138.706L44.4032 136.766C40.2196 137.812 36.6208 139.324 33.6271 141.32L34.7365 142.984ZM44.8988 138.703C48.979 137.636 53.054 137.104 57.1258 137.104V135.104C52.8775 135.104 48.6325 135.66 44.3927 136.769L44.8988 138.703ZM56.4538 179.344C58.7347 179.344 60.7822 178.789 62.5608 177.65L61.4827 175.966C60.0613 176.875 58.3968 177.344 56.4538 177.344V179.344ZM62.5608 177.65C64.3683 176.493 65.6504 174.8 66.4202 172.63L64.5353 171.962C63.8971 173.76 62.8752 175.075 61.4827 175.966L62.5608 177.65ZM66.4778 172.296V167.784H64.4778V172.296H66.4778ZM65.4778 166.784H57.6058V168.784H65.4778V166.784ZM57.6058 166.784C54.871 166.784 52.6455 167.231 51.0774 168.27C49.437 169.357 48.6378 171.01 48.6378 173.064H50.6378C50.6378 171.598 51.1665 170.611 52.1821 169.938C53.27 169.217 55.0285 168.784 57.6058 168.784V166.784ZM48.6378 173.064C48.6378 174.958 49.3769 176.532 50.8421 177.689L52.0814 176.119C51.1146 175.356 50.6378 174.37 50.6378 173.064H48.6378ZM50.8421 177.689C52.2891 178.831 54.1979 179.344 56.4538 179.344V177.344C54.4856 177.344 53.0664 176.897 52.0814 176.119L50.8421 177.689ZM144.671 141.864L143.97 142.577L143.976 142.583L144.671 141.864ZM150.623 189V190H151.623V189H150.623ZM132.383 189H131.383V190H132.383V189ZM116.255 154.632L115.525 153.948L115.52 153.954L115.514 153.96L116.255 154.632ZM113.471 189V190H114.471V189H113.471ZM95.231 189H94.231V190H95.231V189ZM95.231 136.968V135.968H94.231V136.968H95.231ZM112.607 136.968H113.607V135.968H112.607V136.968ZM112.607 142.632H111.607V145.1L113.325 143.328L112.607 142.632ZM119.903 137.832L120.263 138.765L120.273 138.761L120.282 138.758L119.903 137.832ZM129.119 137.104C135.371 137.104 140.286 138.954 143.97 142.577L145.372 141.151C141.248 137.094 135.795 135.104 129.119 135.104V137.104ZM143.976 142.583C147.681 146.169 149.623 151.656 149.623 159.24H151.623C151.623 151.336 149.597 145.239 145.366 141.145L143.976 142.583ZM149.623 159.24V189H151.623V159.24H149.623ZM150.623 188H132.383V190H150.623V188ZM133.383 189V162.216H131.383V189H133.383ZM133.383 162.216C133.383 158.557 132.654 155.627 131.027 153.598C129.367 151.527 126.907 150.56 123.839 150.56V152.56C126.467 152.56 128.279 153.368 129.467 154.85C130.688 156.373 131.383 158.771 131.383 162.216H133.383ZM123.839 150.56C120.462 150.56 117.658 151.674 115.525 153.948L116.985 155.316C118.692 153.494 120.944 152.56 123.839 152.56V150.56ZM115.514 153.96C113.427 156.264 112.471 159.621 112.471 163.848H114.471C114.471 159.883 115.371 157.096 116.996 155.304L115.514 153.96ZM112.471 163.848V189H114.471V163.848H112.471ZM113.471 188H95.231V190H113.471V188ZM96.231 189V136.968H94.231V189H96.231ZM95.231 137.968H112.607V135.968H95.231V137.968ZM111.607 136.968V142.632H113.607V136.968H111.607ZM113.325 143.328C115.27 141.323 117.579 139.802 120.263 138.765L119.543 136.899C116.595 138.038 114.04 139.717 111.889 141.936L113.325 143.328ZM120.282 138.758C122.967 137.659 125.909 137.104 129.119 137.104V135.104C125.673 135.104 122.471 135.701 119.524 136.906L120.282 138.758ZM218.793 136.968H219.793V135.968H218.793V136.968ZM210.921 201.192L210.246 200.454L210.241 200.459L210.921 201.192ZM173.865 206.76L174.114 205.792H174.114L173.865 206.76ZM162.441 201.672L161.553 201.211L161.154 201.982L161.86 202.486L162.441 201.672ZM169.065 188.904L169.698 188.13L168.744 187.35L168.177 188.443L169.065 188.904ZM177.033 192.936L177.332 191.982L177.32 191.978L177.033 192.936ZM197.193 191.304L197.879 192.032L197.193 191.304ZM200.553 180.168H201.553V177.47L199.794 179.516L200.553 180.168ZM172.329 183.24L171.853 184.12L171.864 184.126L172.329 183.24ZM163.017 174.408L162.159 174.923L162.163 174.929L163.017 174.408ZM163.017 148.104L163.87 148.625L163.874 148.618L163.017 148.104ZM172.329 139.272L172.793 140.158L172.805 140.152L172.329 139.272ZM201.417 143.304L200.605 143.888L202.417 146.404V143.304H201.417ZM201.417 136.968V135.968H200.417V136.968H201.417ZM197.481 168.84L196.807 168.101L196.801 168.106L196.796 168.111L197.481 168.84ZM197.577 153.576L196.892 154.305L196.898 154.31L196.904 154.316L197.577 153.576ZM181.161 153.576L181.833 154.316L181.835 154.315L181.161 153.576ZM181.257 168.84L181.931 168.101L181.257 168.84ZM217.793 136.968V179.496H219.793V136.968H217.793ZM217.793 179.496C217.793 188.984 215.22 195.904 210.246 200.454L211.596 201.93C217.117 196.88 219.793 189.336 219.793 179.496H217.793ZM210.241 200.459C205.238 205.096 197.965 207.488 188.265 207.488V209.488C198.277 209.488 206.108 207.016 211.601 201.925L210.241 200.459ZM188.265 207.488C183.22 207.488 178.504 206.92 174.114 205.792L173.616 207.729C178.185 208.904 183.07 209.488 188.265 209.488V207.488ZM174.114 205.792C169.73 204.664 166.04 203.014 163.022 200.858L161.86 202.486C165.114 204.81 169.04 206.552 173.616 207.729L174.114 205.792ZM163.328 202.133L169.952 189.365L168.177 188.443L161.553 201.211L163.328 202.133ZM168.432 189.678C170.666 191.506 173.447 192.904 176.745 193.894L177.32 191.978C174.219 191.048 171.688 189.758 169.698 188.13L168.432 189.678ZM176.733 193.89C180.086 194.942 183.386 195.472 186.633 195.472V193.472C183.607 193.472 180.508 192.978 177.332 191.982L176.733 193.89ZM186.633 195.472C191.55 195.472 195.373 194.394 197.879 192.032L196.507 190.576C194.533 192.438 191.315 193.472 186.633 193.472V195.472ZM197.879 192.032C200.382 189.671 201.553 186.231 201.553 181.896H199.553C199.553 185.881 198.483 188.713 196.507 190.576L197.879 192.032ZM201.553 181.896V180.168H199.553V181.896H201.553ZM199.794 179.516C196.511 183.337 191.67 185.312 185.097 185.312V187.312C192.092 187.312 197.554 185.191 201.311 180.82L199.794 179.516ZM185.097 185.312C180.643 185.312 176.547 184.324 172.793 182.354L171.864 184.126C175.918 186.252 180.334 187.312 185.097 187.312V185.312ZM172.805 182.36C169.055 180.332 166.082 177.512 163.87 173.887L162.163 174.929C164.559 178.856 167.794 181.924 171.853 184.12L172.805 182.36ZM163.874 173.894C161.674 170.226 160.561 165.992 160.561 161.16H158.561C158.561 166.312 159.752 170.91 162.159 174.923L163.874 173.894ZM160.561 161.16C160.561 156.394 161.673 152.227 163.87 148.625L162.163 147.583C159.753 151.533 158.561 156.07 158.561 161.16H160.561ZM163.874 148.618C166.085 144.933 169.055 142.119 172.793 140.158L171.864 138.386C167.795 140.521 164.556 143.595 162.159 147.59L163.874 148.618ZM172.805 140.152C176.557 138.122 180.648 137.104 185.097 137.104V135.104C180.329 135.104 175.909 136.198 171.853 138.392L172.805 140.152ZM185.097 137.104C192.291 137.104 197.385 139.416 200.605 143.888L202.228 142.72C198.537 137.592 192.751 135.104 185.097 135.104V137.104ZM202.417 143.304V136.968H200.417V143.304H202.417ZM201.417 137.968H218.793V135.968H201.417V137.968ZM189.417 172.816C192.9 172.816 195.844 171.749 198.165 169.569L196.796 168.111C194.893 169.899 192.461 170.816 189.417 170.816V172.816ZM198.155 169.579C200.553 167.392 201.745 164.557 201.745 161.16H199.745C199.745 164.035 198.76 166.32 196.807 168.101L198.155 169.579ZM201.745 161.16C201.745 157.773 200.592 154.965 198.249 152.836L196.904 154.316C198.786 156.027 199.745 158.275 199.745 161.16H201.745ZM198.261 152.847C195.936 150.663 192.959 149.6 189.417 149.6V151.6C192.531 151.6 194.993 152.521 196.892 154.305L198.261 152.847ZM189.417 149.6C185.874 149.6 182.871 150.663 180.487 152.837L181.835 154.315C183.802 152.521 186.303 151.6 189.417 151.6V149.6ZM180.488 152.836C178.146 154.965 176.993 157.773 176.993 161.16H178.993C178.993 158.275 179.952 156.027 181.833 154.316L180.488 152.836ZM176.993 161.16C176.993 164.557 178.184 167.392 180.583 169.579L181.931 168.101C179.977 166.32 178.993 164.035 178.993 161.16H176.993ZM180.583 169.579C182.964 171.75 185.933 172.816 189.417 172.816V170.816C186.373 170.816 183.902 169.898 181.931 168.101L180.583 169.579ZM285.232 136.968H286.232V135.968H285.232V136.968ZM285.232 189V190H286.232V189H285.232ZM267.856 189H266.856V190H267.856V189ZM267.856 183.432H268.856V180.845L267.116 182.759L267.856 183.432ZM260.944 188.232L260.569 187.305L260.944 188.232ZM236.272 183.912L235.565 184.619L235.571 184.625L236.272 183.912ZM230.32 136.968V135.968H229.32V136.968H230.32ZM248.56 136.968H249.56V135.968H248.56V136.968ZM264.208 171.336L263.467 170.664L263.466 170.666L264.208 171.336ZM266.992 136.968V135.968H265.992V136.968H266.992ZM284.232 136.968V189H286.232V136.968H284.232ZM285.232 188H267.856V190H285.232V188ZM268.856 189V183.432H266.856V189H268.856ZM267.116 182.759C265.299 184.758 263.12 186.272 260.569 187.305L261.319 189.159C264.144 188.016 266.574 186.33 268.596 184.105L267.116 182.759ZM260.569 187.305C258.005 188.343 255.285 188.864 252.4 188.864V190.864C255.532 190.864 258.508 190.297 261.319 189.159L260.569 187.305ZM252.4 188.864C245.89 188.864 240.784 186.949 236.974 183.199L235.571 184.625C239.824 188.811 245.471 190.864 252.4 190.864V188.864ZM236.979 183.205C233.265 179.491 231.32 173.838 231.32 166.056H229.32C229.32 174.146 231.343 180.397 235.565 184.619L236.979 183.205ZM231.32 166.056V136.968H229.32V166.056H231.32ZM230.32 137.968H248.56V135.968H230.32V137.968ZM247.56 136.968V163.08H249.56V136.968H247.56ZM247.56 163.08C247.56 167.071 248.305 170.201 249.996 172.259L251.541 170.989C250.287 169.463 249.56 166.897 249.56 163.08H247.56ZM249.996 172.259C251.698 174.332 254.156 175.312 257.2 175.312V173.312C254.613 173.312 252.782 172.5 251.541 170.989L249.996 172.259ZM257.2 175.312C260.339 175.312 262.953 174.218 264.95 172.006L263.466 170.666C261.88 172.422 259.822 173.312 257.2 173.312V175.312ZM264.949 172.008C267.039 169.702 267.992 166.31 267.992 162.024H265.992C265.992 166.058 265.09 168.874 263.467 170.664L264.949 172.008ZM267.992 162.024V136.968H265.992V162.024H267.992ZM266.992 137.968H285.232V135.968H266.992V137.968ZM338.933 142.056L338.275 142.809L338.281 142.814L338.933 142.056ZM345.749 189V190H346.749V189H345.749ZM328.757 189H327.757V190H328.757V189ZM328.757 182.28H329.757L327.869 181.819L328.757 182.28ZM302.933 187.752L302.502 188.654L302.933 187.752ZM296.213 182.088L295.358 182.606L295.366 182.619L295.374 182.632L296.213 182.088ZM299.669 162.408L300.249 163.223L300.258 163.216L299.669 162.408ZM327.509 158.28V159.28H328.569L328.507 158.222L327.509 158.28ZM308.885 151.272L309.172 152.23L309.183 152.227L309.194 152.223L308.885 151.272ZM302.357 154.536L301.461 154.98L302.008 156.082L302.975 155.322L302.357 154.536ZM296.213 142.152L295.658 141.32L294.926 141.808L295.317 142.596L296.213 142.152ZM306.677 137.736L306.92 138.706L306.93 138.703L306.677 137.736ZM324.053 176.808L324.592 177.65L324.053 176.808ZM327.509 172.296L328.451 172.63L328.509 172.468V172.296H327.509ZM327.509 167.784H328.509V166.784H327.509V167.784ZM313.493 176.904L312.873 177.689L313.493 176.904ZM319.157 137.104C327.658 137.104 333.978 139.057 338.275 142.809L339.591 141.303C334.8 137.119 327.936 135.104 319.157 135.104V137.104ZM338.281 142.814C342.533 146.467 344.749 152.158 344.749 160.104H346.749C346.749 151.794 344.421 145.453 339.585 141.298L338.281 142.814ZM344.749 160.104V189H346.749V160.104H344.749ZM345.749 188H328.757V190H345.749V188ZM329.757 189V182.28H327.757V189H329.757ZM327.869 181.819C325.476 186.432 320.786 188.864 313.397 188.864V190.864C321.24 190.864 326.79 188.24 329.645 182.741L327.869 181.819ZM313.397 188.864C309.48 188.864 306.146 188.18 303.364 186.85L302.502 188.654C305.608 190.14 309.25 190.864 313.397 190.864V188.864ZM303.364 186.85C300.56 185.509 298.473 183.734 297.052 181.544L295.374 182.632C297.025 185.178 299.418 187.179 302.502 188.654L303.364 186.85ZM297.069 181.57C295.699 179.307 295.005 176.737 295.005 173.832H293.005C293.005 177.071 293.783 180.005 295.358 182.606L297.069 181.57ZM295.005 173.832C295.005 169.203 296.755 165.71 300.249 163.223L299.089 161.593C295.031 164.482 293.005 168.605 293.005 173.832H295.005ZM300.258 163.216C303.781 160.648 309.35 159.28 317.141 159.28V157.28C309.188 157.28 303.109 158.663 299.08 161.6L300.258 163.216ZM317.141 159.28H327.509V157.28H317.141V159.28ZM328.507 158.222C328.334 155.24 327.231 152.875 325.108 151.287C323.025 149.729 320.097 149.024 316.469 149.024V151.024C319.881 151.024 322.313 151.695 323.91 152.889C325.467 154.053 326.364 155.816 326.511 158.338L328.507 158.222ZM316.469 149.024C313.86 149.024 311.228 149.459 308.576 150.321L309.194 152.223C311.662 151.421 314.086 151.024 316.469 151.024V149.024ZM308.598 150.314C305.938 151.112 303.645 152.252 301.739 153.75L302.975 155.322C304.653 154.004 306.712 152.968 309.172 152.23L308.598 150.314ZM303.253 154.092L297.109 141.708L295.317 142.596L301.461 154.98L303.253 154.092ZM296.768 142.984C299.534 141.14 302.911 139.708 306.92 138.706L306.434 136.766C302.251 137.812 298.652 139.324 295.658 141.32L296.768 142.984ZM306.93 138.703C311.01 137.636 315.085 137.104 319.157 137.104V135.104C314.909 135.104 310.664 135.66 306.424 136.769L306.93 138.703ZM318.485 179.344C320.766 179.344 322.813 178.789 324.592 177.65L323.514 175.966C322.093 176.875 320.428 177.344 318.485 177.344V179.344ZM324.592 177.65C326.4 176.493 327.682 174.8 328.451 172.63L326.567 171.962C325.928 173.76 324.906 175.075 323.514 175.966L324.592 177.65ZM328.509 172.296V167.784H326.509V172.296H328.509ZM327.509 166.784H319.637V168.784H327.509V166.784ZM319.637 166.784C316.902 166.784 314.677 167.231 313.109 168.27C311.468 169.357 310.669 171.01 310.669 173.064H312.669C312.669 171.598 313.198 170.611 314.213 169.938C315.301 169.217 317.06 168.784 319.637 168.784V166.784ZM310.669 173.064C310.669 174.958 311.408 176.532 312.873 177.689L314.113 176.119C313.146 175.356 312.669 174.37 312.669 173.064H310.669ZM312.873 177.689C314.32 178.831 316.229 179.344 318.485 179.344V177.344C316.517 177.344 315.098 176.897 314.113 176.119L312.873 177.689ZM413.98 136.968H414.98V135.968H413.98V136.968ZM406.108 201.192L405.433 200.454L405.428 200.459L406.108 201.192ZM369.052 206.76L369.301 205.792L369.052 206.76ZM357.628 201.672L356.741 201.211L356.341 201.982L357.047 202.486L357.628 201.672ZM364.252 188.904L364.885 188.13L363.932 187.35L363.365 188.443L364.252 188.904ZM372.22 192.936L372.52 191.982L372.508 191.978L372.22 192.936ZM392.38 191.304L393.066 192.032L392.38 191.304ZM395.74 180.168H396.74V177.47L394.982 179.516L395.74 180.168ZM367.516 183.24L367.04 184.12L367.052 184.126L367.516 183.24ZM358.204 174.408L357.347 174.923L357.351 174.929L358.204 174.408ZM358.204 148.104L359.058 148.625L359.062 148.618L358.204 148.104ZM367.516 139.272L367.981 140.158L367.992 140.152L367.516 139.272ZM396.604 143.304L395.793 143.888L397.604 146.404V143.304H396.604ZM396.604 136.968V135.968H395.604V136.968H396.604ZM392.668 168.84L391.995 168.101L391.989 168.106L391.984 168.111L392.668 168.84ZM392.764 153.576L392.08 154.305L392.086 154.31L392.092 154.316L392.764 153.576ZM376.348 153.576L377.021 154.316L377.022 154.315L376.348 153.576ZM376.444 168.84L377.118 168.101L376.444 168.84ZM412.98 136.968V179.496H414.98V136.968H412.98ZM412.98 179.496C412.98 188.984 410.408 195.904 405.433 200.454L406.783 201.93C412.305 196.88 414.98 189.336 414.98 179.496H412.98ZM405.428 200.459C400.425 205.096 393.152 207.488 383.452 207.488V209.488C393.464 209.488 401.295 207.016 406.788 201.925L405.428 200.459ZM383.452 207.488C378.407 207.488 373.692 206.92 369.301 205.792L368.803 207.729C373.373 208.904 378.257 209.488 383.452 209.488V207.488ZM369.301 205.792C364.917 204.664 361.227 203.014 358.21 200.858L357.047 202.486C360.301 204.81 364.227 206.552 368.803 207.729L369.301 205.792ZM358.516 202.133L365.14 189.365L363.365 188.443L356.741 201.211L358.516 202.133ZM363.619 189.678C365.853 191.506 368.634 192.904 371.933 193.894L372.508 191.978C369.406 191.048 366.875 189.758 364.885 188.13L363.619 189.678ZM371.921 193.89C375.273 194.942 378.574 195.472 381.82 195.472V193.472C378.795 193.472 375.695 192.978 372.52 191.982L371.921 193.89ZM381.82 195.472C386.738 195.472 390.56 194.394 393.066 192.032L391.694 190.576C389.72 192.438 386.503 193.472 381.82 193.472V195.472ZM393.066 192.032C395.57 189.671 396.74 186.231 396.74 181.896H394.74C394.74 185.881 393.671 188.713 391.694 190.576L393.066 192.032ZM396.74 181.896V180.168H394.74V181.896H396.74ZM394.982 179.516C391.699 183.337 386.857 185.312 380.284 185.312V187.312C387.279 187.312 392.742 185.191 396.499 180.82L394.982 179.516ZM380.284 185.312C375.831 185.312 371.735 184.324 367.981 182.354L367.052 184.126C371.106 186.252 375.522 187.312 380.284 187.312V185.312ZM367.992 182.36C364.243 180.332 361.27 177.512 359.058 173.887L357.351 174.929C359.747 178.856 362.982 181.924 367.04 184.12L367.992 182.36ZM359.062 173.894C356.861 170.226 355.748 165.992 355.748 161.16H353.748C353.748 166.312 354.939 170.91 357.347 174.923L359.062 173.894ZM355.748 161.16C355.748 156.394 356.86 152.227 359.058 148.625L357.351 147.583C354.94 151.533 353.748 156.07 353.748 161.16H355.748ZM359.062 148.618C361.273 144.933 364.242 142.119 367.981 140.158L367.052 138.386C362.982 140.521 359.744 143.595 357.347 147.59L359.062 148.618ZM367.992 140.152C371.744 138.122 375.836 137.104 380.284 137.104V135.104C375.517 135.104 371.096 136.198 367.04 138.392L367.992 140.152ZM380.284 137.104C387.478 137.104 392.572 139.416 395.793 143.888L397.416 142.72C393.724 137.592 387.938 135.104 380.284 135.104V137.104ZM397.604 143.304V136.968H395.604V143.304H397.604ZM396.604 137.968H413.98V135.968H396.604V137.968ZM384.604 172.816C388.088 172.816 391.032 171.749 393.353 169.569L391.984 168.111C390.081 169.899 387.649 170.816 384.604 170.816V172.816ZM393.342 169.579C395.741 167.392 396.932 164.557 396.932 161.16H394.932C394.932 164.035 393.948 166.32 391.995 168.101L393.342 169.579ZM396.932 161.16C396.932 157.773 395.779 154.965 393.437 152.836L392.092 154.316C393.973 156.027 394.932 158.275 394.932 161.16H396.932ZM393.449 152.847C391.124 150.663 388.146 149.6 384.604 149.6V151.6C387.718 151.6 390.181 152.521 392.08 154.305L393.449 152.847ZM384.604 149.6C381.062 149.6 378.059 150.663 375.674 152.837L377.022 154.315C378.99 152.521 381.491 151.6 384.604 151.6V149.6ZM375.676 152.836C373.333 154.965 372.18 157.773 372.18 161.16H374.18C374.18 158.275 375.139 156.027 377.021 154.316L375.676 152.836ZM372.18 161.16C372.18 164.557 373.372 167.392 375.771 169.579L377.118 168.101C375.165 166.32 374.18 164.035 374.18 161.16H372.18ZM375.771 169.579C378.151 171.75 381.12 172.816 384.604 172.816V170.816C381.56 170.816 379.089 169.898 377.118 168.101L375.771 169.579ZM478.596 167.592V168.592H479.531L479.594 167.659L478.596 167.592ZM440.772 167.592V166.592H439.446L439.81 167.867L440.772 167.592ZM445.188 173.832L444.627 174.66L444.641 174.67L444.656 174.679L445.188 173.832ZM459.972 174.888L459.617 173.953L459.606 173.957L459.972 174.888ZM465.54 171.432L466.261 170.739L465.604 170.056L464.887 170.675L465.54 171.432ZM475.14 181.416L475.884 182.084L476.505 181.393L475.861 180.723L475.14 181.416ZM436.932 186.408L437.379 185.514L436.932 186.408ZM426.18 176.808L425.326 177.328L425.332 177.338L426.18 176.808ZM426.084 149.16L425.23 148.64L425.227 148.644L426.084 149.16ZM436.356 139.56L435.888 138.676H435.888L436.356 139.56ZM465.156 139.368L464.698 140.257L464.709 140.262L465.156 139.368ZM475.14 148.68L474.28 149.191L474.285 149.198L474.289 149.206L475.14 148.68ZM444.036 151.464L443.396 150.696L443.389 150.701L443.383 150.707L444.036 151.464ZM440.484 157.992L439.501 157.809L439.281 158.992H440.484V157.992ZM461.796 157.992V158.992H462.999L462.779 157.809L461.796 157.992ZM458.148 151.464L457.495 152.221L457.501 152.227L457.508 152.232L458.148 151.464ZM477.884 163.08C477.884 163.074 477.881 163.152 477.867 163.375C477.856 163.577 477.838 163.865 477.814 164.24C477.766 164.991 477.694 166.086 477.598 167.525L479.594 167.659C479.783 164.815 479.884 163.252 479.884 163.08H477.884ZM478.596 166.592H440.772V168.592H478.596V166.592ZM439.81 167.867C440.638 170.765 442.244 173.048 444.627 174.66L445.748 173.004C443.78 171.672 442.441 169.795 441.733 167.317L439.81 167.867ZM444.656 174.679C447.091 176.21 450.072 176.944 453.54 176.944V174.944C450.352 174.944 447.764 174.27 445.72 172.985L444.656 174.679ZM453.54 176.944C456.126 176.944 458.4 176.58 460.337 175.819L459.606 173.957C457.959 174.604 455.946 174.944 453.54 174.944V176.944ZM460.326 175.823C462.314 175.069 464.268 173.848 466.193 172.189L464.887 170.675C463.099 172.216 461.342 173.299 459.617 173.953L460.326 175.823ZM464.819 172.125L474.419 182.109L475.861 180.723L466.261 170.739L464.819 172.125ZM474.396 180.748C469.58 186.112 462.494 188.864 452.964 188.864V190.864C462.889 190.864 470.587 187.984 475.884 182.084L474.396 180.748ZM452.964 188.864C447.011 188.864 441.825 187.737 437.379 185.514L436.485 187.302C441.254 189.687 446.756 190.864 452.964 190.864V188.864ZM437.379 185.514C432.924 183.286 429.484 180.207 427.028 176.278L425.332 177.338C427.996 181.601 431.723 184.922 436.485 187.302L437.379 185.514ZM427.034 176.288C424.641 172.361 423.436 167.904 423.436 162.888H421.436C421.436 168.24 422.727 173.063 425.326 177.328L427.034 176.288ZM423.436 162.888C423.436 157.934 424.61 153.539 426.94 149.676L425.227 148.644C422.693 152.845 421.436 157.602 421.436 162.888H423.436ZM426.938 149.68C429.337 145.742 432.626 142.666 436.824 140.444L435.888 138.676C431.381 141.062 427.822 144.386 425.23 148.64L426.938 149.68ZM436.824 140.444C441.017 138.224 445.749 137.104 451.044 137.104V135.104C445.458 135.104 440.399 136.288 435.888 138.676L436.824 140.444ZM451.044 137.104C456.083 137.104 460.628 138.16 464.698 140.257L465.614 138.479C461.236 136.224 456.372 135.104 451.044 135.104V137.104ZM464.709 140.262C468.759 142.288 471.945 145.258 474.28 149.191L476 148.169C473.471 143.91 470 140.672 465.603 138.474L464.709 140.262ZM474.289 149.206C476.672 153.054 477.884 157.665 477.884 163.08H479.884C479.884 157.359 478.6 152.37 475.99 148.154L474.289 149.206ZM451.14 148.064C448.121 148.064 445.518 148.927 443.396 150.696L444.676 152.232C446.393 150.801 448.526 150.064 451.14 150.064V148.064ZM443.383 150.707C441.331 152.476 440.048 154.867 439.501 157.809L441.467 158.175C441.944 155.613 443.029 153.652 444.689 152.221L443.383 150.707ZM440.484 158.992H461.796V156.992H440.484V158.992ZM462.779 157.809C462.23 154.857 460.909 152.463 458.788 150.696L457.508 152.232C459.227 153.665 460.338 155.623 460.813 158.175L462.779 157.809ZM458.801 150.707C456.736 148.927 454.158 148.064 451.14 148.064V150.064C453.754 150.064 455.847 150.801 457.495 152.221L458.801 150.707ZM493.341 188.424L493.106 189.396L493.113 189.398L493.12 189.399L493.341 188.424ZM483.165 184.488L482.25 184.086L481.903 184.878L482.635 185.336L483.165 184.488ZM488.638 172.008L489.165 171.159L488.185 170.549L487.722 171.606L488.638 172.008ZM497.086 175.56L496.821 176.524L496.83 176.527L496.839 176.529L497.086 175.56ZM513.021 175.944L513.45 176.848L513.459 176.843L513.469 176.838L513.021 175.944ZM512.638 170.856L512.309 171.8L512.333 171.809L512.357 171.816L512.638 170.856ZM505.534 169.416L505.669 168.425L505.656 168.423L505.534 169.416ZM494.878 167.4L494.6 168.361L494.606 168.362L494.878 167.4ZM487.389 162.792L486.662 163.478L487.389 162.792ZM487.198 144.552L487.988 145.165L487.995 145.155L487.198 144.552ZM495.837 138.408L496.201 139.34L496.209 139.336L495.837 138.408ZM520.797 137.256L521 136.277L520.797 137.256ZM530.109 140.52L531.024 140.924L531.391 140.095L530.601 139.649L530.109 140.52ZM524.638 152.904L524.152 153.778L525.109 154.31L525.552 153.308L524.638 152.904ZM503.326 150.12L503.755 151.023L503.773 151.015L503.79 151.006L503.326 150.12ZM503.517 155.304L503.189 156.248L503.208 156.255L503.226 156.261L503.517 155.304ZM510.814 156.744L510.664 157.733L510.666 157.733L510.814 156.744ZM521.469 158.952L521.753 157.993L521.469 158.952ZM528.766 163.56L528.027 164.235L528.038 164.246L528.048 164.256L528.766 163.56ZM528.958 181.608L529.748 182.221L529.755 182.211L528.958 181.608ZM520.125 187.656L519.773 186.72L519.768 186.722L520.125 187.656ZM506.206 188.864C501.928 188.864 497.714 188.392 493.563 187.449L493.12 189.399C497.417 190.376 501.779 190.864 506.206 190.864V188.864ZM493.577 187.452C489.416 186.443 486.134 185.164 483.695 183.64L482.635 185.336C485.317 187.012 488.819 188.357 493.106 189.396L493.577 187.452ZM484.081 184.89L489.553 172.41L487.722 171.606L482.25 184.086L484.081 184.89ZM488.11 172.857C490.575 174.39 493.483 175.608 496.821 176.524L497.35 174.596C494.16 173.72 491.436 172.57 489.165 171.159L488.11 172.857ZM496.839 176.529C500.179 177.381 503.494 177.808 506.781 177.808V175.808C503.669 175.808 500.52 175.403 497.332 174.591L496.839 176.529ZM506.781 177.808C509.738 177.808 512.016 177.527 513.45 176.848L512.593 175.04C511.595 175.513 509.713 175.808 506.781 175.808V177.808ZM513.469 176.838C514.989 176.078 515.942 174.886 515.942 173.256H513.942C513.942 173.93 513.614 174.53 512.574 175.05L513.469 176.838ZM515.942 173.256C515.942 172.433 515.657 171.694 515.087 171.099C514.54 170.529 513.784 170.149 512.917 169.896L512.357 171.816C513.027 172.011 513.423 172.255 513.644 172.485C513.842 172.69 513.942 172.927 513.942 173.256H515.942ZM512.966 169.911C511.395 169.365 508.943 168.875 505.669 168.425L505.398 170.407C508.652 170.853 510.936 171.323 512.309 171.8L512.966 169.911ZM505.656 168.423C501.529 167.916 498.03 167.252 495.149 166.438L494.606 168.362C497.613 169.212 501.218 169.892 505.411 170.409L505.656 168.423ZM495.155 166.439C492.452 165.658 490.11 164.219 488.117 162.106L486.662 163.478C488.893 165.845 491.543 167.478 494.6 168.361L495.155 166.439ZM488.117 162.106C486.229 160.103 485.221 157.242 485.221 153.384H483.221C483.221 157.59 484.326 161.001 486.662 163.478L488.117 162.106ZM485.221 153.384C485.221 150.271 486.144 147.544 487.988 145.165L486.407 143.939C484.283 146.68 483.221 149.841 483.221 153.384H485.221ZM487.995 145.155C489.844 142.71 492.557 140.76 496.201 139.34L495.474 137.476C491.566 139 488.519 141.146 486.4 143.949L487.995 145.155ZM496.209 139.336C499.902 137.859 504.346 137.104 509.565 137.104V135.104C504.161 135.104 499.453 135.885 495.466 137.48L496.209 139.336ZM509.565 137.104C513.273 137.104 516.949 137.481 520.595 138.235L521 136.277C517.222 135.495 513.41 135.104 509.565 135.104V137.104ZM520.595 138.235C524.236 138.989 527.236 140.047 529.618 141.391L530.601 139.649C527.991 138.177 524.783 137.059 521 136.277L520.595 138.235ZM529.195 140.116L523.723 152.5L525.552 153.308L531.024 140.924L529.195 140.116ZM525.123 152.03C520.364 149.386 515.204 148.064 509.661 148.064V150.064C514.871 150.064 519.695 151.302 524.152 153.778L525.123 152.03ZM509.661 148.064C506.74 148.064 504.427 148.414 502.861 149.234L503.79 151.006C504.912 150.418 506.823 150.064 509.661 150.064V148.064ZM502.896 149.217C501.353 149.952 500.31 151.096 500.31 152.712H502.31C502.31 152.152 502.61 151.568 503.755 151.023L502.896 149.217ZM500.31 152.712C500.31 153.539 500.567 154.294 501.1 154.92C501.619 155.529 502.345 155.955 503.189 156.248L503.846 154.359C503.218 154.141 502.84 153.879 502.623 153.624C502.42 153.386 502.31 153.101 502.31 152.712H500.31ZM503.226 156.261C504.774 156.732 507.268 157.22 510.664 157.733L510.963 155.755C507.575 155.244 505.205 154.772 503.809 154.347L503.226 156.261ZM510.666 157.733C514.927 158.369 518.43 159.097 521.186 159.911L521.753 157.993C518.877 157.143 515.276 156.399 510.961 155.755L510.666 157.733ZM521.186 159.911C523.821 160.69 526.098 162.124 528.027 164.235L529.504 162.885C527.337 160.516 524.75 158.878 521.753 157.993L521.186 159.911ZM528.048 164.256C529.928 166.194 530.933 168.985 530.933 172.776H532.933C532.933 168.631 531.827 165.278 529.483 162.864L528.048 164.256ZM530.933 172.776C530.933 175.82 530.014 178.553 528.16 181.005L529.755 182.211C531.869 179.415 532.933 176.26 532.933 172.776H530.933ZM528.167 180.995C526.325 183.373 523.553 185.295 519.773 186.72L520.478 188.592C524.506 187.073 527.622 184.963 529.748 182.221L528.167 180.995ZM519.768 186.722C516.072 188.139 511.56 188.864 506.206 188.864V190.864C511.731 190.864 516.499 190.117 520.483 188.59L519.768 186.722Z" fill="#2D2D2D"/>
</g>
<defs>
<filter id="filter0_d_230_75" x="0.855988" y="0.767944" width="535.078" height="215.72" filterUnits="userSpaceOnUse" color-interpolation-filters="sRGB">
<feFlood flood-opacity="0" result="BackgroundImageFix"/>
<feColorMatrix in="SourceAlpha" type="matrix" values="0 0 0 0 0 0 0 0 0 0 0 0 0 0 0 0 0 0 127 0" result="hardAlpha"/>
<feOffset dy="4"/>
<feGaussianBlur stdDeviation="2"/>
<feComposite in2="hardAlpha" operator="out"/>
<feColorMatrix type="matrix" values="0 0 0 0 0 0 0 0 0 0 0 0 0 0 0 0 0 0 0.25 0"/>
<feBlend mode="normal" in2="BackgroundImageFix" result="effect1_dropShadow_230_75"/>
<feBlend mode="normal" in="SourceGraphic" in2="effect1_dropShadow_230_75" result="shape"/>
</filter>
</defs>
</svg>
